<svg width="50" height="50" viewBox="0 0 50 50" fill="none" xmlns="http://www.w3.org/2000/svg">
<g filter="url(#filter0_i_225_44)">
<path d="M37.8 27.2229V22.7771L34.4792 25L37.8 27.2229ZM40.4583 29.7104C40.458 29.7683 40.4538 29.826 40.4458 29.8833L40.4354 29.9417L40.4125 30.0521L40.3917 30.1167C40.3817 30.1499 40.3699 30.1826 40.3562 30.2146L40.3271 30.2771C40.3134 30.3074 40.2988 30.3373 40.2833 30.3667L40.2437 30.4292C40.1962 30.5047 40.1403 30.5745 40.0771 30.6375L40.0229 30.6896C39.9987 30.7114 39.9737 30.7322 39.9479 30.7521L39.8875 30.7979L39.8667 30.8146L25.7375 40.2354C25.5192 40.3813 25.2626 40.4592 25 40.4592C24.7374 40.4592 24.4808 40.3813 24.2625 40.2354L10.1333 30.8125L10.1125 30.7958C10.0649 30.7629 10.0197 30.7267 9.97708 30.6875L9.92292 30.6354L9.85625 30.5646L9.8125 30.5062C9.75772 30.4352 9.71091 30.3584 9.67292 30.2771L9.64375 30.2125C9.63068 30.1803 9.61887 30.1477 9.60833 30.1146L9.5875 30.0521C9.57917 30.0146 9.57083 29.9771 9.56667 29.9396L9.55417 29.8813C9.54618 29.824 9.54201 29.7662 9.54167 29.7083V20.2896C9.54169 20.2317 9.54586 20.1739 9.55417 20.1167L9.56458 20.0604L9.5875 19.9479L9.60833 19.8854C9.65773 19.7183 9.74306 19.564 9.85833 19.4333L9.92292 19.3625L9.97708 19.3104C10.0197 19.2713 10.065 19.2351 10.1125 19.2021L10.1333 19.1854L24.2625 9.76667C24.4809 9.62102 24.7375 9.54329 25 9.54329C25.2625 9.54329 25.5191 9.62102 25.7375 9.76667L39.8667 19.1854L39.8875 19.2021L39.95 19.2479L40.0229 19.3104C40.0438 19.3271 40.0583 19.3437 40.0771 19.3625C40.1406 19.4252 40.1966 19.4951 40.2437 19.5708L40.2833 19.6333C40.299 19.6626 40.3136 19.6925 40.3271 19.7229L40.3562 19.7854C40.3708 19.8187 40.3812 19.8521 40.3917 19.8833L40.4125 19.9479C40.4208 19.9854 40.4292 20.0229 40.4333 20.0604L40.4458 20.1167C40.4539 20.174 40.458 20.2317 40.4583 20.2896V29.7104ZM25 0C11.1938 0 0 11.1917 0 25C0 38.8062 11.1938 50 25 50C38.8083 50 50 38.8083 50 25C50 11.1938 38.8083 0 25 0ZM25 21.8583L20.3021 25L25 28.1458L29.6979 25L25 21.8583ZM26.3292 30.45V36.6479L36.7375 29.7104L32.0875 26.6L26.3292 30.45ZM13.2625 29.7083L23.6708 36.6458V30.45L17.9125 26.5979L13.2625 29.7083ZM36.7375 20.2917L26.3292 13.3542V19.55L32.0875 23.4042L36.7375 20.2917ZM23.6708 19.55V13.3542L13.2625 20.2917L17.9125 23.4021L23.6708 19.55ZM12.2 22.7771V27.2229L15.5208 25L12.2 22.7771Z" fill="#90DBF4"/>
</g>
<defs>
<filter id="filter0_i_225_44" x="0" y="0" width="50" height="54" filterUnits="userSpaceOnUse" color-interpolation-filters="sRGB">
<feFlood flood-opacity="0" result="BackgroundImageFix"/>
<feBlend mode="normal" in="SourceGraphic" in2="BackgroundImageFix" result="shape"/>
<feColorMatrix in="SourceAlpha" type="matrix" values="0 0 0 0 0 0 0 0 0 0 0 0 0 0 0 0 0 0 127 0" result="hardAlpha"/>
<feOffset dy="4"/>
<feGaussianBlur stdDeviation="2"/>
<feComposite in2="hardAlpha" operator="arithmetic" k2="-1" k3="1"/>
<feColorMatrix type="matrix" values="0 0 0 0 0 0 0 0 0 0 0 0 0 0 0 0 0 0 0.25 0"/>
<feBlend mode="normal" in2="shape" result="effect1_innerShadow_225_44"/>
</filter>
</defs>
</svg>
