<svg width="102" height="102" viewBox="0 0 102 102" fill="none" xmlns="http://www.w3.org/2000/svg">
<g filter="url(#filter0_ii_407_34)">
<path d="M36.0382 98.8244C9.5074 90.6792 -5.39708 62.5688 2.74808 36.0381C10.8932 9.50732 39.0036 -5.39716 65.5344 2.74799C92.0651 10.8931 106.97 39.0035 98.8245 65.5343C90.6793 92.0651 62.5689 106.97 36.0382 98.8244ZM58.2846 26.3622C44.7956 22.221 30.5035 29.7988 26.3623 43.2878C22.2211 56.7768 29.7989 71.0689 43.2879 75.2102C56.7769 79.3514 71.069 71.7735 75.2103 58.2845C79.3515 44.7955 71.7736 30.5034 58.2846 26.3622Z" fill="url(#paint0_linear_407_34)"/>
<path d="M36.0382 98.8244C9.5074 90.6792 -5.39708 62.5688 2.74808 36.0381C10.8932 9.50732 39.0036 -5.39716 65.5344 2.74799C92.0651 10.8931 106.97 39.0035 98.8245 65.5343C90.6793 92.0651 62.5689 106.97 36.0382 98.8244ZM58.2846 26.3622C44.7956 22.221 30.5035 29.7988 26.3623 43.2878C22.2211 56.7768 29.7989 71.0689 43.2879 75.2102C56.7769 79.3514 71.069 71.7735 75.2103 58.2845C79.3515 44.7955 71.7736 30.5034 58.2846 26.3622Z" fill="url(#paint1_radial_407_34)"/>
<path d="M36.0382 98.8244C9.5074 90.6792 -5.39708 62.5688 2.74808 36.0381C10.8932 9.50732 39.0036 -5.39716 65.5344 2.74799C92.0651 10.8931 106.97 39.0035 98.8245 65.5343C90.6793 92.0651 62.5689 106.97 36.0382 98.8244ZM58.2846 26.3622C44.7956 22.221 30.5035 29.7988 26.3623 43.2878C22.2211 56.7768 29.7989 71.0689 43.2879 75.2102C56.7769 79.3514 71.069 71.7735 75.2103 58.2845C79.3515 44.7955 71.7736 30.5034 58.2846 26.3622Z" fill="url(#paint2_radial_407_34)" fill-opacity="0.5"/>
</g>
<defs>
<filter id="filter0_ii_407_34" x="-2.47821" y="0.521484" width="107.529" height="104.529" filterUnits="userSpaceOnUse" color-interpolation-filters="sRGB">
<feFlood flood-opacity="0" result="BackgroundImageFix"/>
<feBlend mode="normal" in="SourceGraphic" in2="BackgroundImageFix" result="shape"/>
<feColorMatrix in="SourceAlpha" type="matrix" values="0 0 0 0 0 0 0 0 0 0 0 0 0 0 0 0 0 0 127 0" result="hardAlpha"/>
<feMorphology radius="31" operator="dilate" in="SourceAlpha" result="effect1_innerShadow_407_34"/>
<feOffset dx="20" dy="29"/>
<feGaussianBlur stdDeviation="17.5"/>
<feComposite in2="hardAlpha" operator="arithmetic" k2="-1" k3="1"/>
<feColorMatrix type="matrix" values="0 0 0 0 1 0 0 0 0 1 0 0 0 0 1 0 0 0 0.33 0"/>
<feBlend mode="normal" in2="shape" result="effect1_innerShadow_407_34"/>
<feColorMatrix in="SourceAlpha" type="matrix" values="0 0 0 0 0 0 0 0 0 0 0 0 0 0 0 0 0 0 127 0" result="hardAlpha"/>
<feOffset dx="-3"/>
<feGaussianBlur stdDeviation="3"/>
<feComposite in2="hardAlpha" operator="arithmetic" k2="-1" k3="1"/>
<feColorMatrix type="matrix" values="0 0 0 0 0 0 0 0 0 0 0 0 0 0 0 0 0 0 0.25 0"/>
<feBlend mode="normal" in2="effect1_innerShadow_407_34" result="effect2_innerShadow_407_34"/>
</filter>
<linearGradient id="paint0_linear_407_34" x1="77.168" y1="84.5" x2="21.168" y2="45" gradientUnits="userSpaceOnUse">
<stop stop-color="#6BEEFB"/>
<stop offset="0.899107" stop-color="#FFC2C6"/>
</linearGradient>
<radialGradient id="paint1_radial_407_34" cx="0" cy="0" r="1" gradientUnits="userSpaceOnUse" gradientTransform="translate(26.917 10.0828) rotate(61.1134) scale(4.16092 9.49946)">
<stop stop-color="white"/>
<stop offset="0.459413" stop-color="#FEFAFA" stop-opacity="0.469775"/>
<stop offset="1" stop-color="#FEF5F5" stop-opacity="0"/>
</radialGradient>
<radialGradient id="paint2_radial_407_34" cx="0" cy="0" r="1" gradientUnits="userSpaceOnUse" gradientTransform="translate(71.0124 72.8967) rotate(-130.236) scale(2.13936 6.42547)">
<stop offset="0.158824" stop-color="#F7EBEB"/>
<stop offset="1" stop-color="#FFF0F0" stop-opacity="0"/>
</radialGradient>
</defs>
</svg>
