<svg width="152" height="152" viewBox="0 0 152 152" fill="none" xmlns="http://www.w3.org/2000/svg">
<g filter="url(#filter0_i_407_36)">
<path d="M54.0143 148.137C14.2419 135.927 -8.10145 93.7865 4.10899 54.0141C16.3194 14.2418 58.4598 -8.10161 98.2322 4.10883C138.005 16.3193 160.348 58.4597 148.138 98.232C135.927 138.004 93.7867 160.348 54.0143 148.137ZM87.3641 39.509C67.1427 33.3009 45.7173 44.6609 39.5091 64.8823C33.301 85.1037 44.661 106.529 64.8824 112.737C85.1038 118.945 106.529 107.585 112.737 87.3639C118.945 67.1425 107.585 45.7171 87.3641 39.509Z" fill="url(#paint0_linear_407_36)"/>
<path d="M54.0143 148.137C14.2419 135.927 -8.10145 93.7865 4.10899 54.0141C16.3194 14.2418 58.4598 -8.10161 98.2322 4.10883C138.005 16.3193 160.348 58.4597 148.138 98.232C135.927 138.004 93.7867 160.348 54.0143 148.137ZM87.3641 39.509C67.1427 33.3009 45.7173 44.6609 39.5091 64.8823C33.301 85.1037 44.661 106.529 64.8824 112.737C85.1038 118.945 106.529 107.585 112.737 87.3639C118.945 67.1425 107.585 45.7171 87.3641 39.509Z" fill="url(#paint1_radial_407_36)"/>
<path d="M54.0143 148.137C14.2419 135.927 -8.10145 93.7865 4.10899 54.0141C16.3194 14.2418 58.4598 -8.10161 98.2322 4.10883C138.005 16.3193 160.348 58.4597 148.138 98.232C135.927 138.004 93.7867 160.348 54.0143 148.137ZM87.3641 39.509C67.1427 33.3009 45.7173 44.6609 39.5091 64.8823C33.301 85.1037 44.661 106.529 64.8824 112.737C85.1038 118.945 106.529 107.585 112.737 87.3639C118.945 67.1425 107.585 45.7171 87.3641 39.509Z" fill="url(#paint2_radial_407_36)" fill-opacity="0.5"/>
</g>
<defs>
<filter id="filter0_i_407_36" x="-2.22839" y="0.771484" width="153.703" height="150.703" filterUnits="userSpaceOnUse" color-interpolation-filters="sRGB">
<feFlood flood-opacity="0" result="BackgroundImageFix"/>
<feBlend mode="normal" in="SourceGraphic" in2="BackgroundImageFix" result="shape"/>
<feColorMatrix in="SourceAlpha" type="matrix" values="0 0 0 0 0 0 0 0 0 0 0 0 0 0 0 0 0 0 127 0" result="hardAlpha"/>
<feOffset dx="-3"/>
<feGaussianBlur stdDeviation="3"/>
<feComposite in2="hardAlpha" operator="arithmetic" k2="-1" k3="1"/>
<feColorMatrix type="matrix" values="0 0 0 0 0 0 0 0 0 0 0 0 0 0 0 0 0 0 0.25 0"/>
<feBlend mode="normal" in2="shape" result="effect1_innerShadow_407_36"/>
</filter>
<linearGradient id="paint0_linear_407_36" x1="102.489" y1="116.802" x2="28.6643" y2="25.651" gradientUnits="userSpaceOnUse">
<stop stop-color="#90DBF4"/>
<stop offset="1" stop-color="#FFBFC3"/>
</linearGradient>
<radialGradient id="paint1_radial_407_36" cx="0" cy="0" r="1" gradientUnits="userSpaceOnUse" gradientTransform="translate(40.3407 15.1045) rotate(61.1134) scale(6.23765 14.2407)">
<stop stop-color="white"/>
<stop offset="0.459413" stop-color="#FEFAFA" stop-opacity="0.469775"/>
<stop offset="1" stop-color="#FEF5F5" stop-opacity="0"/>
</radialGradient>
<radialGradient id="paint2_radial_407_36" cx="0" cy="0" r="1" gradientUnits="userSpaceOnUse" gradientTransform="translate(106.444 109.269) rotate(-130.236) scale(3.20713 9.63244)">
<stop offset="0.158824" stop-color="#F7EBEB"/>
<stop offset="1" stop-color="#FFF0F0" stop-opacity="0"/>
</radialGradient>
</defs>
</svg>
