<svg width="257" height="257" viewBox="0 0 257 257" fill="none" xmlns="http://www.w3.org/2000/svg">
<g filter="url(#filter0_ii_402_33)">
<path d="M117.406 256.155C47.0417 249.891 -4.92193 187.771 1.34222 117.406C7.60637 47.0418 69.7262 -4.92183 140.091 1.34232C210.455 7.60647 262.419 69.7263 256.155 140.091C249.891 210.456 187.771 262.419 117.406 256.155ZM134.515 63.9717C98.7399 60.7868 67.1564 87.2066 63.9716 122.982C60.7867 158.757 87.2065 190.341 122.982 193.526C158.757 196.711 190.341 170.291 193.526 134.515C196.71 98.74 170.291 67.1565 134.515 63.9717Z" fill="url(#paint0_linear_402_33)"/>
<path d="M117.406 256.155C47.0417 249.891 -4.92193 187.771 1.34222 117.406C7.60637 47.0418 69.7262 -4.92183 140.091 1.34232C210.455 7.60647 262.419 69.7263 256.155 140.091C249.891 210.456 187.771 262.419 117.406 256.155ZM134.515 63.9717C98.7399 60.7868 67.1564 87.2066 63.9716 122.982C60.7867 158.757 87.2065 190.341 122.982 193.526C158.757 196.711 190.341 170.291 193.526 134.515C196.71 98.74 170.291 67.1565 134.515 63.9717Z" fill="url(#paint1_radial_402_33)"/>
<path d="M117.406 256.155C47.0417 249.891 -4.92193 187.771 1.34222 117.406C7.60637 47.0418 69.7262 -4.92183 140.091 1.34232C210.455 7.60647 262.419 69.7263 256.155 140.091C249.891 210.456 187.771 262.419 117.406 256.155ZM134.515 63.9717C98.7399 60.7868 67.1564 87.2066 63.9716 122.982C60.7867 158.757 87.2065 190.341 122.982 193.526C158.757 196.711 190.341 170.291 193.526 134.515C196.71 98.74 170.291 67.1565 134.515 63.9717Z" fill="url(#paint2_radial_402_33)" fill-opacity="0.5"/>
</g>
<defs>
<filter id="filter0_ii_402_33" x="-2.16959" y="0.830078" width="262.836" height="259.837" filterUnits="userSpaceOnUse" color-interpolation-filters="sRGB">
<feFlood flood-opacity="0" result="BackgroundImageFix"/>
<feBlend mode="normal" in="SourceGraphic" in2="BackgroundImageFix" result="shape"/>
<feColorMatrix in="SourceAlpha" type="matrix" values="0 0 0 0 0 0 0 0 0 0 0 0 0 0 0 0 0 0 127 0" result="hardAlpha"/>
<feMorphology radius="31" operator="dilate" in="SourceAlpha" result="effect1_innerShadow_402_33"/>
<feOffset dx="20" dy="29"/>
<feGaussianBlur stdDeviation="17.5"/>
<feComposite in2="hardAlpha" operator="arithmetic" k2="-1" k3="1"/>
<feColorMatrix type="matrix" values="0 0 0 0 1 0 0 0 0 1 0 0 0 0 1 0 0 0 0.33 0"/>
<feBlend mode="normal" in2="shape" result="effect1_innerShadow_402_33"/>
<feColorMatrix in="SourceAlpha" type="matrix" values="0 0 0 0 0 0 0 0 0 0 0 0 0 0 0 0 0 0 127 0" result="hardAlpha"/>
<feOffset dx="-3"/>
<feGaussianBlur stdDeviation="3"/>
<feComposite in2="hardAlpha" operator="arithmetic" k2="-1" k3="1"/>
<feColorMatrix type="matrix" values="0 0 0 0 0 0 0 0 0 0 0 0 0 0 0 0 0 0 0.25 0"/>
<feBlend mode="normal" in2="effect1_innerShadow_402_33" result="effect2_innerShadow_402_33"/>
</filter>
<linearGradient id="paint0_linear_402_33" x1="186.879" y1="187.024" x2="32.132" y2="61.6415" gradientUnits="userSpaceOnUse">
<stop stop-color="#F7B0E9"/>
<stop offset="1" stop-color="#B9FBC0"/>
</linearGradient>
<radialGradient id="paint1_radial_402_33" cx="0" cy="0" r="1" gradientUnits="userSpaceOnUse" gradientTransform="translate(47.8094 40.0089) rotate(49.1338) scale(10.5913 24.1801)">
<stop stop-color="white"/>
<stop offset="0.459413" stop-color="#FEFAFA" stop-opacity="0.469775"/>
<stop offset="1" stop-color="#FEF5F5" stop-opacity="0"/>
</radialGradient>
<radialGradient id="paint2_radial_402_33" cx="0" cy="0" r="1" gradientUnits="userSpaceOnUse" gradientTransform="translate(190.793 173.117) rotate(-142.216) scale(5.44558 16.3555)">
<stop offset="0.158824" stop-color="#F7EBEB"/>
<stop offset="1" stop-color="#FFF0F0" stop-opacity="0"/>
</radialGradient>
</defs>
</svg>
