<svg width="69" height="69" viewBox="0 0 69 69" fill="none" xmlns="http://www.w3.org/2000/svg">
<g filter="url(#filter0_i_407_35)">
<path d="M24.3732 66.6854C6.49398 61.1963 -3.55021 42.2526 1.93884 24.3734C7.42789 6.49426 26.3716 -3.54993 44.2508 1.93912C62.13 7.42818 72.1741 26.3719 66.6851 44.2511C61.196 62.1302 42.2523 72.1744 24.3732 66.6854ZM39.3651 17.8528C30.2749 15.062 20.6433 20.1688 17.8525 29.2591C15.0618 38.3494 20.1685 47.9809 29.2588 50.7717C38.3491 53.5625 47.9806 48.4557 50.7714 39.3654C53.5622 30.2751 48.4554 20.6436 39.3651 17.8528Z" fill="url(#paint0_linear_407_35)"/>
<path d="M24.3732 66.6854C6.49398 61.1963 -3.55021 42.2526 1.93884 24.3734C7.42789 6.49426 26.3716 -3.54993 44.2508 1.93912C62.13 7.42818 72.1741 26.3719 66.6851 44.2511C61.196 62.1302 42.2523 72.1744 24.3732 66.6854ZM39.3651 17.8528C30.2749 15.062 20.6433 20.1688 17.8525 29.2591C15.0618 38.3494 20.1685 47.9809 29.2588 50.7717C38.3491 53.5625 47.9806 48.4557 50.7714 39.3654C53.5622 30.2751 48.4554 20.6436 39.3651 17.8528Z" fill="url(#paint1_radial_407_35)"/>
<path d="M24.3732 66.6854C6.49398 61.1963 -3.55021 42.2526 1.93884 24.3734C7.42789 6.49426 26.3716 -3.54993 44.2508 1.93912C62.13 7.42818 72.1741 26.3719 66.6851 44.2511C61.196 62.1302 42.2523 72.1744 24.3732 66.6854ZM39.3651 17.8528C30.2749 15.062 20.6433 20.1688 17.8525 29.2591C15.0618 38.3494 20.1685 47.9809 29.2588 50.7717C38.3491 53.5625 47.9806 48.4557 50.7714 39.3654C53.5622 30.2751 48.4554 20.6436 39.3651 17.8528Z" fill="url(#paint2_radial_407_35)" fill-opacity="0.5"/>
</g>
<defs>
<filter id="filter0_i_407_35" x="-2.56146" y="0.438477" width="70.7469" height="67.7471" filterUnits="userSpaceOnUse" color-interpolation-filters="sRGB">
<feFlood flood-opacity="0" result="BackgroundImageFix"/>
<feBlend mode="normal" in="SourceGraphic" in2="BackgroundImageFix" result="shape"/>
<feColorMatrix in="SourceAlpha" type="matrix" values="0 0 0 0 0 0 0 0 0 0 0 0 0 0 0 0 0 0 127 0" result="hardAlpha"/>
<feOffset dx="-3"/>
<feGaussianBlur stdDeviation="3"/>
<feComposite in2="hardAlpha" operator="arithmetic" k2="-1" k3="1"/>
<feColorMatrix type="matrix" values="0 0 0 0 0 0 0 0 0 0 0 0 0 0 0 0 0 0 0.25 0"/>
<feBlend mode="normal" in2="shape" result="effect1_innerShadow_407_35"/>
</filter>
<linearGradient id="paint0_linear_407_35" x1="46.1645" y1="52.5991" x2="12.9774" y2="11.6231" gradientUnits="userSpaceOnUse">
<stop stop-color="#C7A6FC"/>
<stop offset="1" stop-color="#FFFBBF"/>
</linearGradient>
<radialGradient id="paint1_radial_407_35" cx="0" cy="0" r="1" gradientUnits="userSpaceOnUse" gradientTransform="translate(18.2264 6.8821) rotate(61.1134) scale(2.80406 6.40173)">
<stop stop-color="white"/>
<stop offset="0.459413" stop-color="#FEFAFA" stop-opacity="0.469775"/>
<stop offset="1" stop-color="#FEF5F5" stop-opacity="0"/>
</radialGradient>
<radialGradient id="paint2_radial_407_35" cx="0" cy="0" r="1" gradientUnits="userSpaceOnUse" gradientTransform="translate(47.9424 49.2126) rotate(-130.236) scale(1.44172 4.33015)">
<stop offset="0.158824" stop-color="#F7EBEB"/>
<stop offset="1" stop-color="#FFF0F0" stop-opacity="0"/>
</radialGradient>
</defs>
</svg>
