<svg width="72" height="72" viewBox="0 0 72 72" fill="none" xmlns="http://www.w3.org/2000/svg">
<g filter="url(#filter0_ii_407_37)">
<path d="M25.9106 70.2316C7.18228 64.4818 -3.33891 44.6385 2.41082 25.9102C8.16054 7.18195 28.0039 -3.33924 46.7322 2.41049C65.4604 8.16021 75.9816 28.0036 70.2319 46.7318C64.4822 65.4601 44.6388 75.9813 25.9106 70.2316ZM41.6145 19.0799C32.0925 16.1566 22.0036 21.5059 19.0803 31.0279C16.1569 40.5499 21.5062 50.6388 31.0282 53.5621C40.5502 56.4854 50.6391 51.1362 53.5624 41.6142C56.4858 32.0922 51.1365 22.0033 41.6145 19.0799Z" fill="url(#paint0_linear_407_37)"/>
<path d="M25.9106 70.2316C7.18228 64.4818 -3.33891 44.6385 2.41082 25.9102C8.16054 7.18195 28.0039 -3.33924 46.7322 2.41049C65.4604 8.16021 75.9816 28.0036 70.2319 46.7318C64.4822 65.4601 44.6388 75.9813 25.9106 70.2316ZM41.6145 19.0799C32.0925 16.1566 22.0036 21.5059 19.0803 31.0279C16.1569 40.5499 21.5062 50.6388 31.0282 53.5621C40.5502 56.4854 50.6391 51.1362 53.5624 41.6142C56.4858 32.0922 51.1365 22.0033 41.6145 19.0799Z" fill="url(#paint1_radial_407_37)"/>
<path d="M25.9106 70.2316C7.18228 64.4818 -3.33891 44.6385 2.41082 25.9102C8.16054 7.18195 28.0039 -3.33924 46.7322 2.41049C65.4604 8.16021 75.9816 28.0036 70.2319 46.7318C64.4822 65.4601 44.6388 75.9813 25.9106 70.2316ZM41.6145 19.0799C32.0925 16.1566 22.0036 21.5059 19.0803 31.0279C16.1569 40.5499 21.5062 50.6388 31.0282 53.5621C40.5502 56.4854 50.6391 51.1362 53.5624 41.6142C56.4858 32.0922 51.1365 22.0033 41.6145 19.0799Z" fill="url(#paint2_radial_407_37)" fill-opacity="0.5"/>
</g>
<defs>
<filter id="filter0_ii_407_37" x="-2.16074" y="0.838867" width="77.9642" height="74.9639" filterUnits="userSpaceOnUse" color-interpolation-filters="sRGB">
<feFlood flood-opacity="0" result="BackgroundImageFix"/>
<feBlend mode="normal" in="SourceGraphic" in2="BackgroundImageFix" result="shape"/>
<feColorMatrix in="SourceAlpha" type="matrix" values="0 0 0 0 0 0 0 0 0 0 0 0 0 0 0 0 0 0 127 0" result="hardAlpha"/>
<feMorphology radius="31" operator="dilate" in="SourceAlpha" result="effect1_innerShadow_407_37"/>
<feOffset dx="20" dy="29"/>
<feGaussianBlur stdDeviation="17.5"/>
<feComposite in2="hardAlpha" operator="arithmetic" k2="-1" k3="1"/>
<feColorMatrix type="matrix" values="0 0 0 0 1 0 0 0 0 1 0 0 0 0 1 0 0 0 0.33 0"/>
<feBlend mode="normal" in2="shape" result="effect1_innerShadow_407_37"/>
<feColorMatrix in="SourceAlpha" type="matrix" values="0 0 0 0 0 0 0 0 0 0 0 0 0 0 0 0 0 0 127 0" result="hardAlpha"/>
<feOffset dx="-3"/>
<feGaussianBlur stdDeviation="3"/>
<feComposite in2="hardAlpha" operator="arithmetic" k2="-1" k3="1"/>
<feColorMatrix type="matrix" values="0 0 0 0 0 0 0 0 0 0 0 0 0 0 0 0 0 0 0.25 0"/>
<feBlend mode="normal" in2="effect1_innerShadow_407_37" result="effect2_innerShadow_407_37"/>
</filter>
<linearGradient id="paint0_linear_407_37" x1="54.9444" y1="60.1199" x2="15.4136" y2="32.2365" gradientUnits="userSpaceOnUse">
<stop stop-color="#FBF8CC"/>
<stop offset="0.899107" stop-color="#B9FBC0"/>
</linearGradient>
<radialGradient id="paint1_radial_407_37" cx="0" cy="0" r="1" gradientUnits="userSpaceOnUse" gradientTransform="translate(19.4719 7.58821) rotate(61.1134) scale(2.93723 6.70575)">
<stop stop-color="white"/>
<stop offset="0.459413" stop-color="#FEFAFA" stop-opacity="0.469775"/>
<stop offset="1" stop-color="#FEF5F5" stop-opacity="0"/>
</radialGradient>
<radialGradient id="paint2_radial_407_37" cx="0" cy="0" r="1" gradientUnits="userSpaceOnUse" gradientTransform="translate(50.5991 51.929) rotate(-130.236) scale(1.51019 4.53579)">
<stop offset="0.158824" stop-color="#F7EBEB"/>
<stop offset="1" stop-color="#FFF0F0" stop-opacity="0"/>
</radialGradient>
</defs>
</svg>
